<svg version="1.1" id="Capa_1" xmlns="http://www.w3.org/2000/svg" xmlns:xlink="http://www.w3.org/1999/xlink" x="0px" y="0px" viewBox="0 0 512 512" style="enable-background:new 0 0 512 512;" xml:space="preserve">
<g>
	<g>
		<path style="fill:#00F2A6;" d="M310.086,480.69l113.583-124.047C546.089,222.945,451.243,7.5,269.964,7.5h-27.926&#10;&#9;&#9;&#9;C60.76,7.5-34.086,222.945,88.334,356.643L201.917,480.69C230.986,512.437,281.018,512.437,310.086,480.69z"/>
		<path style="fill:#05E39C;" d="M295.813,9.005c129.218,53.222,180.739,227.465,75.271,342.65l-136.92,149.535&#10;&#9;&#9;&#9;c26.146,8.121,55.972,1.29,75.923-20.499l113.583-124.047C540.128,229.455,459.962,28.294,295.813,9.005z"/>
		<path style="fill:#3E5959;" d="M408.676,142.557L285.37,209.871c-4.662,2.545-2.855,9.629,2.457,9.629h55.493&#10;&#9;&#9;&#9;c44.792,0,82.182-31.663,91.025-73.827c0.667-3.182-1.777-6.173-5.028-6.173h-8.662C416.469,139.5,412.35,140.551,408.676,142.557&#10;&#9;&#9;&#9;z"/>
		<path style="fill:#384949;" d="M429.317,139.5h-8.662c-4.186,0-8.305,1.051-11.979,3.057l-12.924,7.056&#10;&#9;&#9;&#9;c-8.248,33.087-33.211,59.546-65.415,69.888h12.983c44.792,0,82.182-31.663,91.025-73.827&#10;&#9;&#9;&#9;C435.013,142.491,432.568,139.5,429.317,139.5z"/>
		<path style="fill:#3E5959;" d="M82.687,139.5c-3.251,0-5.696,2.991-5.028,6.173c8.843,42.164,46.233,73.827,91.025,73.827h55.493&#10;&#9;&#9;&#9;c5.312,0,7.12-7.084,2.457-9.629l-123.306-67.314c-3.674-2.006-7.793-3.057-11.979-3.057H82.687z"/>
		<path style="fill:#384949;" d="M226.634,209.871l-40.007-21.84c-11.522,13.046-26.646,22.829-43.818,27.801&#10;&#9;&#9;&#9;c8.216,2.376,16.892,3.668,25.874,3.668h55.493C229.488,219.5,231.296,212.416,226.634,209.871z"/>
		<g>
			<path style="fill:#3E5959;" d="M150.002,276.566v20.024c0,57.913,47.363,107.019,105.275,107.407&#10;&#9;&#9;&#9;&#9;c58.875,0.394,106.725-47.214,106.725-105.998v-21.434c0-10.454-8.475-18.929-18.929-18.929H168.93&#10;&#9;&#9;&#9;&#9;C158.476,257.638,150.002,266.112,150.002,276.566z"/>
			<path style="fill:#3E5959;" d="M345.859,257.865v5.16c0,19.43-15.808,35.237-35.237,35.237h-109.24&#10;&#9;&#9;&#9;&#9;c-19.43,0-35.237-15.807-35.237-35.237v-5.16c-9.129,1.351-16.143,9.196-16.143,18.701v20.024&#10;&#9;&#9;&#9;&#9;c0,57.913,47.363,107.019,105.275,107.407c58.875,0.394,106.725-47.214,106.725-105.998v-21.434&#10;&#9;&#9;&#9;&#9;C362.002,267.062,354.988,259.216,345.859,257.865z"/>
			<path style="fill:#384949;" d="M345.859,257.865v5.16c0,16.491-11.39,30.368-26.716,34.189&#10;&#9;&#9;&#9;&#9;c-4.983,54.167-50.713,96.538-106.267,96.166c-0.821-0.005-1.639-0.024-2.455-0.049c13.626,6.719,28.835,10.559,44.855,10.667&#10;&#9;&#9;&#9;&#9;c58.875,0.394,106.725-47.214,106.725-105.998v-21.434C362.002,267.062,354.988,259.216,345.859,257.865z"/>
			<path style="fill:#FEAD8A;" d="M257.203,348.447c-25.969-0.555-47.943,16.931-54.263,40.785&#10;&#9;&#9;&#9;&#9;c15.442,9.228,33.312,14.638,52.336,14.766c19.577,0.131,37.92-5.07,53.705-14.2&#10;&#9;&#9;&#9;&#9;C302.797,366.583,282.204,348.981,257.203,348.447z"/>
			<path style="fill:#FD9468;" d="M290.195,360.657c-19.452,20.328-46.915,32.927-77.319,32.723&#10;&#9;&#9;&#9;&#9;c-0.793-0.005-1.583-0.024-2.372-0.047c13.606,6.704,28.777,10.558,44.771,10.665c19.577,0.131,37.92-5.07,53.705-14.2&#10;&#9;&#9;&#9;&#9;C305.895,378.211,299.218,368.023,290.195,360.657z"/>
			<path style="fill:#FFFFFF;" d="M310.622,299.262c20.013,0,36.237-16.224,36.237-36.237v-5.007&#10;&#9;&#9;&#9;&#9;c-1.223-0.248-2.489-0.38-3.786-0.38H168.93c-1.297,0-2.562,0.132-3.786,0.38v5.007c0,20.013,16.224,36.237,36.237,36.237&#10;&#9;&#9;&#9;&#9;H310.622z"/>
			<path style="fill:#DEECF1;" d="M343.073,257.638h-23.471v29.744c0,3.675-0.187,7.305-0.552,10.884&#10;&#9;&#9;&#9;&#9;c15.947-3.8,27.809-18.131,27.809-35.241v-5.007C345.635,257.769,344.37,257.638,343.073,257.638z"/>
		</g>
	</g>
	<g>
		<path style="fill:none;stroke:#000000;stroke-width:15;stroke-linecap:round;stroke-linejoin:round;stroke-miterlimit:10;" d="&#10;&#9;&#9;&#9;M420.203,71.018C383.669,32.618,331.857,7.5,269.964,7.5h-27.926C60.76,7.5-34.086,222.945,88.334,356.643l42.642,46.57"/>
		<path style="fill:none;stroke:#000000;stroke-width:15;stroke-linecap:round;stroke-linejoin:round;stroke-miterlimit:10;" d="&#10;&#9;&#9;&#9;M154.624,429.04l47.293,51.65c29.068,31.746,79.1,31.746,108.169,0l113.583-124.047c71.381-77.957,68.889-183.703,18.472-258.33"/>
		<path style="fill:none;stroke:#000000;stroke-width:15;stroke-linecap:round;stroke-linejoin:round;stroke-miterlimit:10;" d="&#10;&#9;&#9;&#9;M408.676,142.557L285.37,209.871c-4.662,2.545-2.855,9.629,2.457,9.629h55.493c44.792,0,82.182-31.663,91.025-73.827&#10;&#9;&#9;&#9;c0.667-3.182-1.777-6.173-5.028-6.173h-8.662C416.469,139.5,412.35,140.551,408.676,142.557z"/>
		<path style="fill:none;stroke:#000000;stroke-width:15;stroke-linecap:round;stroke-linejoin:round;stroke-miterlimit:10;" d="&#10;&#9;&#9;&#9;M82.687,139.5c-3.251,0-5.696,2.991-5.028,6.173c8.843,42.164,46.233,73.827,91.025,73.827h55.493c5.312,0,7.12-7.084,2.457-9.629&#10;&#9;&#9;&#9;l-123.306-67.314c-3.674-2.006-7.793-3.057-11.979-3.057H82.687z"/>
		<path style="fill:none;stroke:#000000;stroke-width:15;stroke-linecap:round;stroke-linejoin:round;stroke-miterlimit:10;" d="&#10;&#9;&#9;&#9;M308.981,389.797c-6.184-23.214-26.777-40.817-51.778-41.351c-25.969-0.555-47.943,16.931-54.263,40.785"/>
		<path style="fill:none;stroke:#000000;stroke-width:15;stroke-linecap:round;stroke-linejoin:round;stroke-miterlimit:10;" d="&#10;&#9;&#9;&#9;M165.144,258.018v5.007c0,20.013,16.224,36.237,36.237,36.237h109.24c20.013,0,36.237-16.224,36.237-36.237v-5.007"/>
		<path style="fill:none;stroke:#000000;stroke-width:15;stroke-linecap:round;stroke-linejoin:round;stroke-miterlimit:10;" d="&#10;&#9;&#9;&#9;M206.002,257.638H168.93c-10.454,0-18.929,8.475-18.929,18.929v20.024c0,57.913,47.363,107.019,105.275,107.407&#10;&#9;&#9;&#9;c58.875,0.394,106.725-47.214,106.725-105.998v-21.434c0-10.454-8.475-18.929-18.929-18.929H241.002"/>
		<g>
			<path style="fill:none;stroke:#000000;stroke-width:15;stroke-linecap:round;stroke-linejoin:round;stroke-miterlimit:10;" d="&#10;&#9;&#9;&#9;&#9;M187.338,85.168C161.794,72.234,130.6,82.456,117.665,108"/>
		</g>
		<g>
			<path style="fill:none;stroke:#000000;stroke-width:15;stroke-linecap:round;stroke-linejoin:round;stroke-miterlimit:10;" d="&#10;&#9;&#9;&#9;&#9;M324.665,85.168c25.544-12.935,56.738-2.713,69.673,22.832"/>
		</g>
	</g>
</g>
<g>
</g>
<g>
</g>
<g>
</g>
<g>
</g>
<g>
</g>
<g>
</g>
<g>
</g>
<g>
</g>
<g>
</g>
<g>
</g>
<g>
</g>
<g>
</g>
<g>
</g>
<g>
</g>
<g>
</g>
</svg>